<?xml version="1.0" encoding="UTF-8" standalone="no"?>
<!-- Created with Inkscape (http://www.inkscape.org/) -->

<svg
   width="32"
   height="38"
   viewBox="0 0 8.4666665 10.054167"
   version="1.1"
   id="svg1"
   xml:space="preserve"
   inkscape:version="1.3 (1:1.3+202307231459+0e150ed6c4)"
   sodipodi:docname="base-layer-icon.raw.svg"
   inkscape:export-filename="base-layer-icon.svg"
   inkscape:export-xdpi="96"
   inkscape:export-ydpi="96"
   xmlns:inkscape="http://www.inkscape.org/namespaces/inkscape"
   xmlns:sodipodi="http://sodipodi.sourceforge.net/DTD/sodipodi-0.dtd"
   xmlns="http://www.w3.org/2000/svg"
   xmlns:svg="http://www.w3.org/2000/svg"><sodipodi:namedview
     id="namedview1"
     pagecolor="#ffffff"
     bordercolor="#000000"
     borderopacity="0.25"
     inkscape:showpageshadow="2"
     inkscape:pageopacity="0.0"
     inkscape:pagecheckerboard="true"
     inkscape:deskcolor="#d1d1d1"
     inkscape:document-units="px"
     inkscape:zoom="23.261953"
     inkscape:cx="8.6407191"
     inkscape:cy="14.530164"
     inkscape:window-width="1920"
     inkscape:window-height="1016"
     inkscape:window-x="0"
     inkscape:window-y="27"
     inkscape:window-maximized="1"
     inkscape:current-layer="layer1" /><defs
     id="defs1" /><g
     inkscape:label="Layer"
     inkscape:groupmode="layer"
     id="layer1"><path
       id="rect1"
       style="fill:#565656;fill-opacity:1;stroke-width:0.264583"
       d="M 1.0583333 0 C 0.47201729 -1.5666465e-16 0 0.47201729 0 1.0583333 L 0 7.4083334 C -1.5666465e-16 7.9946494 0.47201729 8.4666667 1.0583333 8.4666667 L 3.175 8.4666667 L 4.2333334 10.054167 L 5.2916667 8.4666667 L 7.4083334 8.4666667 C 7.9946494 8.4666667 8.4666667 7.9946494 8.4666667 7.4083334 L 8.4666667 1.0583333 C 8.4666667 0.47201729 7.9946494 0 7.4083334 0 L 1.0583333 0 z "
       inkscape:label="Box" /><g
       id="Groupe_5091"
       data-name="Groupe 5091"
       inkscape:label="Icon"
       transform="matrix(0.26458334,0,0,0.26458334,22.754212,55.893231)"><path
         id="Tracé_1696"
         data-name="Tracé 1696"
         d="m -67.694,-199 1.333,8 h -7.277 l 1.336,-8 z m 0,-2 h -4.6 a 2,2 0 0 0 -1.977,1.675 L -76,-189 h 12 l -1.721,-10.325 A 2,2 0 0 0 -67.7,-201 Z"
         fill="#707785"
         style="fill:#ffffff;fill-opacity:1" /><g
         id="g2"><rect
           id="Rectangle_6496"
           data-name="Rectangle 6496"
           width="2"
           height="12"
           transform="rotate(90,62,-126)"
           fill="#707785"
           x="0"
           y="0"
           style="fill:#ffffff;fill-opacity:1" /><rect
           id="Rectangle_6497"
           data-name="Rectangle 6497"
           width="1.5"
           height="2.25"
           transform="translate(-70.75,-204.25)"
           fill="#707785"
           x="0"
           y="0"
           style="fill:#ffffff;fill-opacity:1" /><rect
           id="Rectangle_6498"
           data-name="Rectangle 6498"
           width="1.5"
           height="2.25"
           transform="rotate(45,213.01218,-178.82847)"
           fill="#707785"
           x="0"
           y="0"
           style="fill:#ffffff;fill-opacity:1" /><rect
           id="Rectangle_6499"
           data-name="Rectangle 6499"
           width="1.5"
           height="2.25"
           transform="rotate(-45,-282.26194,-8.0222778)"
           fill="#707785"
           x="0"
           y="0"
           style="fill:#ffffff;fill-opacity:1" /></g></g></g></svg>
