<svg xmlns="http://www.w3.org/2000/svg" width="22" height="22" viewBox="0 0 22 22">
  <g id="Bullseye" transform="translate(1 1)">
    <rect id="Rectangle_6964" data-name="Rectangle 6964" width="20" height="20" fill="none"/>
    <g id="Ellipse_798" data-name="Ellipse 798" transform="translate(8 8)" fill="#3b4559" stroke="#cccfd6" stroke-width="1">
      <circle cx="2" cy="2" r="2" stroke="none"/>
      <circle cx="2" cy="2" r="2.5" fill="none"/>
    </g>
    <g id="Tracé_1772" data-name="Tracé 1772" fill="#3b4559">
      <path d="M 10 16.5 C 6.415890216827393 16.5 3.5 13.58411026000977 3.5 10 C 3.5 6.415890216827393 6.415890216827393 3.5 10 3.5 C 13.58411026000977 3.5 16.5 6.415890216827393 16.5 10 C 16.5 13.58411026000977 13.58411026000977 16.5 10 16.5 Z M 10 6.5 C 8.070090293884277 6.5 6.5 8.070090293884277 6.5 10 C 6.5 11.92990970611572 8.070090293884277 13.5 10 13.5 C 11.92990970611572 13.5 13.5 11.92990970611572 13.5 10 C 13.5 8.070090293884277 11.92990970611572 6.5 10 6.5 Z" stroke="none"/>
      <path d="M 10 16 C 13.30900001525879 16 16 13.30900001525879 16 10 C 16 6.690999984741211 13.30900001525879 4 10 4 C 6.690999984741211 4 4 6.690999984741211 4 10 C 4 13.30900001525879 6.690999984741211 16 10 16 M 10 6 C 12.20600032806396 6 14 7.794000148773193 14 10 C 14 12.20600032806396 12.20600032806396 14 10 14 C 7.794000148773193 14 6 12.20600032806396 6 10 C 6 7.794000148773193 7.794000148773193 6 10 6 M 10 17 C 6.140190124511719 17 3 13.85980987548828 3 10 C 3 6.140190124511719 6.140190124511719 3 10 3 C 13.85980987548828 3 17 6.140190124511719 17 10 C 17 13.85980987548828 13.85980987548828 17 10 17 Z M 10 7 C 8.345789909362793 7 7 8.345789909362793 7 10 C 7 11.65421009063721 8.345789909362793 13 10 13 C 11.65421009063721 13 13 11.65421009063721 13 10 C 13 8.345789909362793 11.65421009063721 7 10 7 Z" stroke="none" fill="#cccfd6"/>
    </g>
    <g id="Tracé_1773" data-name="Tracé 1773" fill="#3b4559">
      <path d="M 10 20.5 C 4.210279941558838 20.5 -0.5 15.789719581604 -0.5 10 C -0.5 4.210279941558838 4.210279941558838 -0.5 10 -0.5 C 15.789719581604 -0.5 20.5 4.210279941558838 20.5 10 C 20.5 15.789719581604 15.789719581604 20.5 10 20.5 Z M 10 2.5 C 5.864490032196045 2.5 2.5 5.864490032196045 2.5 10 C 2.5 14.13551044464111 5.864490032196045 17.5 10 17.5 C 14.13551044464111 17.5 17.5 14.13551044464111 17.5 10 C 17.5 5.864490032196045 14.13551044464111 2.5 10 2.5 Z" stroke="none"/>
      <path d="M 10 20 C 15.51399993896484 20 20 15.51399993896484 20 10 C 20 4.486000061035156 15.51399993896484 0 10 0 C 4.486000061035156 0 0 4.486000061035156 0 10 C 0 15.51399993896484 4.486000061035156 20 10 20 M 10 2 C 14.41100025177002 2 18 5.589000225067139 18 10 C 18 14.41100025177002 14.41100025177002 18 10 18 C 5.589000225067139 18 2 14.41100025177002 2 10 C 2 5.589000225067139 5.589000225067139 2 10 2 M 10 21 C 3.934580087661743 21 -1 16.06542015075684 -1 10 C -1 3.934580087661743 3.934580087661743 -1 10 -1 C 16.06542015075684 -1 21 3.934580087661743 21 10 C 21 16.06542015075684 16.06542015075684 21 10 21 Z M 10 3 C 6.140190124511719 3 3 6.140190124511719 3 10 C 3 13.85980987548828 6.140190124511719 17 10 17 C 13.85980987548828 17 17 13.85980987548828 17 10 C 17 6.140190124511719 13.85980987548828 3 10 3 Z" stroke="none" fill="#cccfd6"/>
    </g>
  </g>
</svg>
