<svg id="Groupe_5832" data-name="Groupe 5832" xmlns="http://www.w3.org/2000/svg" width="20" height="20" viewBox="0 0 20 20">
  <rect id="Rectangle_6964" data-name="Rectangle 6964" width="20" height="20" fill="none"/>
  <circle id="Ellipse_798" data-name="Ellipse 798" cx="2" cy="2" r="2" transform="translate(8 8)" fill="#707785"/>
  <path id="Tracé_1772" data-name="Tracé 1772" d="M10,16a6,6,0,1,1,6-6A6.006,6.006,0,0,1,10,16ZM10,6a4,4,0,1,0,4,4A4,4,0,0,0,10,6Z" fill="#707785"/>
  <path id="Tracé_1773" data-name="Tracé 1773" d="M10,20A10,10,0,1,1,20,10,10.011,10.011,0,0,1,10,20ZM10,2a8,8,0,1,0,8,8A8.009,8.009,0,0,0,10,2Z" fill="#707785"/>
</svg>
