<svg id="Semaphore" xmlns="http://www.w3.org/2000/svg" width="20" height="20" viewBox="0 0 20 20">
    <path id="Tracé_1515" data-name="Tracé 1515" d="M0,0H20V20H0Z" fill="none" />
    <path id="Tracé_1516" data-name="Tracé 1516" d="M0,0H20V20H0Z" fill="none" />
    <g id="Tracé_1602" data-name="Tracé 1602">
        <path
            d="M 16.53698921203613 19.5 L 16 19.5 L 10 19.5 L 9.5 19.5 L 9.5 19 L 9.5 15.5 L 7.5 15.5 L 7.5 19 L 7.5 19.5 L 7 19.5 L 4 19.5 L 3.46301007270813 19.5 L 3.501270055770874 18.96438026428223 L 4.463011264801025 5.5 L 2 5.5 L 1.5 5.5 L 1.5 5 L 1.5 1 L 1.5 0.5 L 2 0.5 L 18 0.5 L 18.5 0.5 L 18.5 1 L 18.5 5 L 18.5 5.5 L 18 5.5 L 15.53698825836182 5.5 L 16.49872970581055 18.96438026428223 L 16.53698921203613 19.5 Z M 15.5 3 L 16.5 3 L 16.5 2 L 15.5 2 L 15.5 3 Z M 12.5 3 L 13.5 3 L 13.5 2 L 12.5 2 L 12.5 3 Z M 9.5 3 L 10.5 3 L 10.5 2 L 9.5 2 L 9.5 3 Z M 6.5 3 L 7.5 3 L 7.5 2 L 6.5 2 L 6.5 3 Z M 3.5 3 L 4.5 3 L 4.5 2 L 3.5 2 L 3.5 3 Z"
            fill="#3B4559" />
        <path
            d="M 2 1 L 2 5 L 5 5 L 4 19 L 7 19 L 7 15 L 10 15 L 10 19 L 16 19 L 15 5 L 18 5 L 18 1 L 2 1 M 5 3.5 L 3 3.5 L 3 1.5 L 5 1.5 L 5 3.5 M 8 3.5 L 6 3.5 L 6 1.5 L 8 1.5 L 8 3.5 M 11 3.5 L 9 3.5 L 9 1.5 L 11 1.5 L 11 3.5 M 14 3.5 L 12 3.5 L 12 1.5 L 14 1.5 L 14 3.5 M 17 3.5 L 15 3.5 L 15 1.5 L 17 1.5 L 17 3.5 M 1 0 L 19 0 L 19 6 L 16.07397842407227 6 L 17.0739803314209 20 L 9 20 L 9 16 L 8 16 L 8 20 L 2.926019668579102 20 L 3.926021575927734 6 L 1 6 L 1 0 Z"
            fill="#cccfd6" />
    </g>
</svg>