<svg xmlns="http://www.w3.org/2000/svg" width="34" height="40.802" viewBox="0 0 34 40.802">
  <g id="Groupe_5607" data-name="Groupe 5607" transform="translate(-1118 -349.001)">
    <g id="Groupe_4815" data-name="Groupe 4815" transform="translate(154 -319)">
      <g id="Union_35" data-name="Union 35" transform="translate(-7136 5677)" fill="#707785">
        <path d="M 8117.00048828125 -4969.09814453125 L 8116.58447265625 -4969.72216796875 L 8112.73193359375 -4975.50048828125 L 8105.00048828125 -4975.50048828125 C 8102.51904296875 -4975.50048828125 8100.5 -4977.5185546875 8100.5 -4979.9990234375 L 8100.5 -5004.00048828125 C 8100.5 -5006.48095703125 8102.51904296875 -5008.4990234375 8105.00048828125 -5008.4990234375 L 8129 -5008.4990234375 C 8131.4814453125 -5008.4990234375 8133.50048828125 -5006.48095703125 8133.50048828125 -5004.00048828125 L 8133.50048828125 -4979.9990234375 C 8133.50048828125 -4977.5185546875 8131.4814453125 -4975.50048828125 8129 -4975.50048828125 L 8121.2685546875 -4975.50048828125 L 8117.41650390625 -4969.72216796875 L 8117.00048828125 -4969.09814453125 Z" stroke="none"/>
        <path d="M 8117.00048828125 -4969.99951171875 L 8121.0009765625 -4976.00048828125 L 8112.99951171875 -4976.00048828125 L 8117.00048828125 -4969.99951171875 M 8129 -4976.00048828125 C 8131.20849609375 -4976.00048828125 8133.00048828125 -4977.79052734375 8133.00048828125 -4979.9990234375 L 8133.00048828125 -5004.00048828125 C 8133.00048828125 -5006.208984375 8131.20849609375 -5007.9990234375 8129 -5007.9990234375 L 8105.00048828125 -5007.9990234375 C 8102.7900390625 -5007.9990234375 8101 -5006.208984375 8101 -5004.00048828125 L 8101 -4979.9990234375 C 8101 -4977.79052734375 8102.7900390625 -4976.00048828125 8105.00048828125 -4976.00048828125 L 8129 -4976.00048828125 M 8117.00048828125 -4968.19677734375 L 8112.46435546875 -4975.00048828125 L 8105.00048828125 -4975.00048828125 C 8102.2431640625 -4975.00048828125 8100 -4977.24267578125 8100 -4979.9990234375 L 8100 -5004.00048828125 C 8100 -5006.7568359375 8102.2431640625 -5008.9990234375 8105.00048828125 -5008.9990234375 L 8129 -5008.9990234375 C 8131.75732421875 -5008.9990234375 8134.00048828125 -5006.7568359375 8134.00048828125 -5004.00048828125 L 8134.00048828125 -4979.9990234375 C 8134.00048828125 -4977.24267578125 8131.75732421875 -4975.00048828125 8129 -4975.00048828125 L 8121.5361328125 -4975.00048828125 L 8117.00048828125 -4968.19677734375 Z" stroke="none" fill="#cccfd6"/>
      </g>
      <g id="Groupe_4809" data-name="Groupe 4809" transform="translate(971 675)">
        <g id="Groupe_4808" data-name="Groupe 4808">
          <rect id="Rectangle_6551" data-name="Rectangle 6551" width="2" height="12" transform="translate(16 17) rotate(90)" fill="#fff" stroke="rgba(0,0,0,0)" stroke-width="1"/>
          <path id="Tracé_1688" data-name="Tracé 1688" d="M12.306,6l1.333,8H6.362L7.7,6Zm0-2H7.7A2,2,0,0,0,5.721,5.675L4,16H16L14.279,5.675A2,2,0,0,0,12.3,4Z" fill="#fff" stroke="rgba(0,0,0,0)" stroke-width="1"/>
          <rect id="Rectangle_6552" data-name="Rectangle 6552" width="1.5" height="2.25" transform="translate(9.25 0.75)" fill="#fff" stroke="rgba(0,0,0,0)" stroke-width="1"/>
          <rect id="Rectangle_6553" data-name="Rectangle 6553" width="1.5" height="2.25" transform="translate(15.939 2) rotate(45)" fill="#fff" stroke="rgba(0,0,0,0)" stroke-width="1"/>
          <rect id="Rectangle_6554" data-name="Rectangle 6554" width="1.5" height="2.25" transform="translate(3 3.061) rotate(-45)" fill="#fff" stroke="rgba(0,0,0,0)" stroke-width="1"/>
        </g>
        <rect id="Rectangle_6555" data-name="Rectangle 6555" width="20" height="20" fill="none" stroke="rgba(0,0,0,0)" stroke-width="1"/>
        <path id="Tracé_1689" data-name="Tracé 1689" d="M0,0H20V20H0Z" fill="none" stroke="rgba(0,0,0,0)" stroke-width="1"/>
      </g>
    </g>
  </g>
</svg>
