<svg id="controle_18px" data-name="controle_18px" xmlns="http://www.w3.org/2000/svg" width="18" height="18"
  viewBox="0 0 18 18">
  <path id="Trace_1179" data-name="Trace 1179" d="M0,0H18V18H0Z" fill="none" />
  <path id="Trace_1180" data-name="Trace 1180"
    d="M3.712,15.6V11.064a6.065,6.065,0,0,1,12.13,0V15.6H16.6v1.511H2.954V15.6Zm1.516-4.532H6.744A3.027,3.027,0,0,1,9.777,8.043V6.532a4.54,4.54,0,0,0-4.549,4.532ZM9.019,2h1.516V4.266H9.019Zm6.655,2.121,1.072,1.068-1.607,1.6L14.066,5.723l1.608-1.6ZM2.808,5.189,3.88,4.121l1.608,1.6L4.417,6.792Z"
    transform="translate(-0.777 -0.553)" fill="#fff" />
</svg>