<svg xmlns="http://www.w3.org/2000/svg" width="26" height="26" viewBox="0 0 26 26">
  <g id="Groupe_5245" data-name="Groupe 5245" transform="translate(164 101)">
    <g id="Groupe_4639" data-name="Groupe 4639" fill="#CCCFD6">
      <g id="Tracé_1681" data-name="Tracé 1681" fill="#3B4559">
        <path d="M -151 -75.59290313720703 L -151.3535461425781 -75.94644927978516 L -152.7295532226562 -77.32244873046875 L -152.8760070800781 -77.46888732910156 L -152.8760070800781 -77.67600250244141 L -152.8760070800781 -83.44999694824219 L -152.8760070800781 -84.02741241455078 L -152.3045349121094 -83.94486236572266 C -151.8092041015625 -83.87332153320312 -151.3946838378906 -83.83999633789062 -151 -83.83999633789062 C -150.6053161621094 -83.83999633789062 -150.1907958984375 -83.87332153320312 -149.6954650878906 -83.94486236572266 L -149.1239929199219 -84.02741241455078 L -149.1239929199219 -83.44999694824219 L -149.1239929199219 -77.67600250244141 L -149.1239929199219 -77.46888732910156 L -149.2704467773438 -77.32244873046875 L -150.6464538574219 -75.94644927978516 L -151 -75.59290313720703 Z" stroke="none"/>
        <path d="M -152.3760070800781 -83.44999694824219 L -152.3760070800781 -77.67600250244141 L -151 -76.30000305175781 L -149.6239929199219 -77.67600250244141 L -149.6239929199219 -83.44999694824219 C -150.0740051269531 -83.38500213623047 -150.531005859375 -83.33999633789062 -151 -83.33999633789062 C -151.468994140625 -83.33999633789062 -151.9259948730469 -83.38500213623047 -152.3760070800781 -83.44999694824219 M -153.3760070800781 -84.60482025146484 L -152.2330627441406 -84.43972778320312 C -151.7619934082031 -84.37168884277344 -151.3701782226562 -84.33999633789062 -151 -84.33999633789062 C -150.6298217773438 -84.33999633789062 -150.2380065917969 -84.37168884277344 -149.7669372558594 -84.43972778320312 L -148.6239929199219 -84.60482025146484 L -148.6239929199219 -77.26177978515625 L -151 -74.88578796386719 L -153.3760070800781 -77.26177978515625 L -153.3760070800781 -84.60482025146484 Z" stroke="none" fill="#cccfd6"/>
      </g>
      <g id="Tracé_1680" data-name="Tracé 1680" fill="#A13112">
        <path d="M -151 -83.59999084472656 C -151.4325561523438 -83.59999084472656 -151.8847961425781 -83.64051055908203 -152.3825836181641 -83.723876953125 C -152.8599243164062 -83.80394744873047 -153.3368835449219 -83.92852020263672 -153.80029296875 -84.09418487548828 L -153.8059234619141 -84.09619140625 L -153.8114929199219 -84.09833526611328 L -153.8194885253906 -84.10140991210938 C -155.1568908691406 -84.58441162109375 -156.3556213378906 -85.41038513183594 -157.2873992919922 -86.49087524414062 L -157.3003234863281 -86.50438690185547 L -157.310302734375 -86.51481628417969 L -157.3196563720703 -86.52579498291016 C -157.5925750732422 -86.84623718261719 -157.8457794189453 -87.19938659667969 -158.0937347412109 -87.60540008544922 L -158.0965728759766 -87.61005401611328 L -158.0993041992188 -87.61475372314453 C -158.1094970703125 -87.63230133056641 -158.1201629638672 -87.6494140625 -158.1307678222656 -87.66654205322266 C -158.1461334228516 -87.69136047363281 -158.1614379882812 -87.71620178222656 -158.1762084960938 -87.74160766601562 C -158.3872833251953 -88.10494232177734 -158.5741882324219 -88.49405670166016 -158.7318572998047 -88.89835357666016 C -158.7472381591797 -88.93715667724609 -158.7623748779297 -88.97897338867188 -158.7775268554688 -89.02097320556641 C -158.7847595214844 -89.04110717773438 -158.7920227050781 -89.06127166748047 -158.7995300292969 -89.08144378662109 L -158.800537109375 -89.08411407470703 L -158.8014831542969 -89.08680725097656 C -158.9574432373047 -89.52046203613281 -159.0711975097656 -89.93131256103516 -159.1492462158203 -90.34281158447266 C -159.1565246582031 -90.38307189941406 -159.1617736816406 -90.41921234130859 -159.1669158935547 -90.45528411865234 C -159.1693572998047 -90.47231292724609 -159.1717529296875 -90.48931884765625 -159.1744384765625 -90.50619506835938 C -159.2589263916016 -91.00249481201172 -159.3000030517578 -91.45845794677734 -159.3000030517578 -91.90000152587891 C -159.3000030517578 -96.47663116455078 -155.5766448974609 -100.1999969482422 -151 -100.1999969482422 C -146.4233551025391 -100.1999969482422 -142.6999969482422 -96.47663116455078 -142.6999969482422 -91.90000152587891 C -142.6999969482422 -91.45845794677734 -142.7410583496094 -91.00253295898438 -142.8255615234375 -90.50623321533203 C -142.8282470703125 -90.48931884765625 -142.8306579589844 -90.47225189208984 -142.8330841064453 -90.45518493652344 C -142.8382263183594 -90.41917419433594 -142.8434753417969 -90.38310241699219 -142.8498992919922 -90.34743499755859 C -142.9288177490234 -89.93128204345703 -143.0425720214844 -89.52044677734375 -143.1985168457031 -89.08680725097656 L -143.199462890625 -89.08411407470703 L -143.2004699707031 -89.08144378662109 C -143.2079772949219 -89.06127166748047 -143.2152404785156 -89.04110717773438 -143.2224731445312 -89.02097320556641 C -143.2376251220703 -88.97897338867188 -143.2527618408203 -88.93715667724609 -143.2691650390625 -88.89576721191406 C -143.4258117675781 -88.49405670166016 -143.6127166748047 -88.10494232177734 -143.8236541748047 -87.7418212890625 C -143.8385620117188 -87.71620178222656 -143.8538665771484 -87.69136047363281 -143.8692321777344 -87.66654205322266 C -143.8798370361328 -87.6494140625 -143.8905029296875 -87.63230133056641 -143.9006958007812 -87.61475372314453 L -143.9034271240234 -87.61005401611328 L -143.9062652587891 -87.60540008544922 C -144.1541748046875 -87.19943237304688 -144.4073791503906 -86.84628295898438 -144.6803436279297 -86.52579498291016 L -144.6859741210938 -86.51918029785156 L -144.6918334960938 -86.51278686523438 L -144.7080078125 -86.49506378173828 C -145.6427001953125 -85.41189575195312 -146.8431549072266 -84.58439636230469 -148.1805114746094 -84.10140991210938 L -148.1885070800781 -84.09833526611328 L -148.1940765380859 -84.09619140625 L -148.19970703125 -84.09418487548828 C -148.6631164550781 -83.92852020263672 -149.1400756835938 -83.80394744873047 -149.6172943115234 -83.72389221191406 C -150.1152038574219 -83.64051055908203 -150.5674438476562 -83.59999084472656 -151 -83.59999084472656 Z" stroke="none"/>
        <path d="M -151 -99.69999694824219 C -155.3079986572266 -99.69999694824219 -158.8000030517578 -96.20800018310547 -158.8000030517578 -91.90000152587891 C -158.8000030517578 -91.45200347900391 -158.7539978027344 -91.01500701904297 -158.6809997558594 -90.58699035644531 C -158.6730041503906 -90.53700256347656 -158.6670074462891 -90.48600769042969 -158.6580047607422 -90.43599700927734 C -158.5809936523438 -90.02999114990234 -158.4680023193359 -89.63700103759766 -158.3309936523438 -89.25599670410156 C -158.3090057373047 -89.19699096679688 -158.2890014648438 -89.13800048828125 -158.2660064697266 -89.08000183105469 C -158.1190032958984 -88.7030029296875 -157.9450073242188 -88.33899688720703 -157.7440032958984 -87.99299621582031 C -157.718994140625 -87.94999694824219 -157.6920013427734 -87.90899658203125 -157.6670074462891 -87.86599731445312 C -157.4490051269531 -87.50900268554688 -157.2089996337891 -87.16700744628906 -156.9389953613281 -86.84999084472656 L -156.9170074462891 -86.82700347900391 C -156.0480041503906 -85.81600189208984 -154.9239959716797 -85.03099060058594 -153.6450042724609 -84.57000732421875 L -153.6320037841797 -84.56500244140625 C -153.2039947509766 -84.41200256347656 -152.7590026855469 -84.29400634765625 -152.3000030517578 -84.21700286865234 C -151.8760070800781 -84.14600372314453 -151.4440002441406 -84.09999084472656 -151 -84.09999084472656 C -150.5559997558594 -84.09999084472656 -150.1239929199219 -84.14600372314453 -149.6999969482422 -84.21700286865234 C -149.2409973144531 -84.29400634765625 -148.7960052490234 -84.41200256347656 -148.3679962158203 -84.56500244140625 L -148.3549957275391 -84.57000732421875 C -147.0760040283203 -85.03099060058594 -145.9519958496094 -85.81700134277344 -145.0820007324219 -86.82700347900391 L -145.0610046386719 -86.84999084472656 C -144.7910003662109 -87.16700744628906 -144.5509948730469 -87.50900268554688 -144.3329925537109 -87.86599731445312 C -144.3079986572266 -87.90899658203125 -144.281005859375 -87.94999694824219 -144.2559967041016 -87.99299621582031 C -144.0549926757812 -88.33899688720703 -143.8809967041016 -88.7030029296875 -143.7339935302734 -89.08000183105469 C -143.7109985351562 -89.13800048828125 -143.6909942626953 -89.19699096679688 -143.6690063476562 -89.25599670410156 C -143.5319976806641 -89.63700103759766 -143.4190063476562 -90.02999114990234 -143.3419952392578 -90.43599700927734 C -143.3329925537109 -90.48600769042969 -143.3269958496094 -90.53700256347656 -143.3190002441406 -90.58699035644531 C -143.2460021972656 -91.01500701904297 -143.1999969482422 -91.45200347900391 -143.1999969482422 -91.90000152587891 C -143.1999969482422 -96.20800018310547 -146.6920013427734 -99.69999694824219 -151 -99.69999694824219 M -151 -100.6999969482422 C -146.1476593017578 -100.6999969482422 -142.1999969482422 -96.75233459472656 -142.1999969482422 -91.90000152587891 C -142.1999969482422 -91.43075561523438 -142.2432556152344 -90.94815063476562 -142.3322296142578 -90.42476654052734 C -142.3343048095703 -90.41147613525391 -142.3361663818359 -90.39810180664062 -142.3380737304688 -90.38471221923828 C -142.3440856933594 -90.34259033203125 -142.3503265380859 -90.3004150390625 -142.3578338623047 -90.25868225097656 L -142.3595275878906 -90.2496337890625 C -142.4425354003906 -89.81200408935547 -142.5630645751953 -89.37629699707031 -142.7279968261719 -88.91761016845703 L -142.73193359375 -88.90689086914062 C -142.7388000488281 -88.88842010498047 -142.7454376220703 -88.86996459960938 -142.7520751953125 -88.85154724121094 C -142.7686614990234 -88.80548095703125 -142.7853240966797 -88.75966644287109 -142.8032684326172 -88.71426391601562 C -142.9700469970703 -88.28691101074219 -143.1678924560547 -87.87525177001953 -143.3913269042969 -87.49065399169922 C -143.4086608886719 -87.46085357666016 -143.4263153076172 -87.43209075927734 -143.4440765380859 -87.40340423583984 C -143.4522552490234 -87.39019012451172 -143.4605255126953 -87.37705230712891 -143.4683990478516 -87.363525390625 L -143.4795532226562 -87.34480285644531 C -143.7413024902344 -86.91616058349609 -144.0095825195312 -86.54221343994141 -144.2996978759766 -86.20159149169922 L -144.3341522216797 -86.16298675537109 C -145.3229217529297 -85.01904296875 -146.5919036865234 -84.14455413818359 -148.0054779052734 -83.63301086425781 L -148.0313873291016 -83.62336730957031 C -148.5225067138672 -83.44780731201172 -149.0282440185547 -83.31572723388672 -149.5345611572266 -83.23078155517578 C -150.0602111816406 -83.14276123046875 -150.5394744873047 -83.09999084472656 -151 -83.09999084472656 C -151.4605255126953 -83.09999084472656 -151.9397888183594 -83.14276123046875 -152.4651641845703 -83.23073577880859 C -152.9717559814453 -83.31572723388672 -153.4774932861328 -83.44780731201172 -153.9686126708984 -83.62336730957031 L -153.9945068359375 -83.63301086425781 C -155.4062805175781 -84.14389038085938 -156.6721343994141 -85.01531982421875 -157.6574401855469 -86.15437316894531 L -157.7003021240234 -86.20159149169922 C -157.9904479980469 -86.54226684570312 -158.2587280273438 -86.91622161865234 -158.5204620361328 -87.34482574462891 L -158.5316009521484 -87.363525390625 C -158.5394744873047 -87.37705230712891 -158.5477447509766 -87.39019012451172 -158.5559234619141 -87.40340423583984 C -158.5736846923828 -87.43209075927734 -158.5913391113281 -87.46085357666016 -158.6084136962891 -87.49022674560547 C -158.8321075439453 -87.87525177001953 -159.0299530029297 -88.28691101074219 -159.1967315673828 -88.71426391601562 C -159.2146759033203 -88.75966644287109 -159.2313385009766 -88.80548095703125 -159.2479248046875 -88.85154724121094 C -159.2545623779297 -88.86996459960938 -159.2611999511719 -88.88842010498047 -159.26806640625 -88.90689086914062 L -159.2720031738281 -88.91761016845703 C -159.4369354248047 -89.37627410888672 -159.5574645996094 -89.81197357177734 -159.6404876708984 -90.24961090087891 L -159.6421966552734 -90.25887298583984 C -159.6496887207031 -90.30051422119141 -159.6559143066406 -90.34260559082031 -159.6619110107422 -90.38462066650391 C -159.663818359375 -90.39801025390625 -159.6656799316406 -90.411376953125 -159.6677551269531 -90.42464447021484 C -159.7567443847656 -90.94806671142578 -159.8000030517578 -91.43072509765625 -159.8000030517578 -91.90000152587891 C -159.8000030517578 -96.75233459472656 -155.8523406982422 -100.6999969482422 -151 -100.6999969482422 Z" stroke="none" fill="#cccfd6"/>
      </g>
    </g>
    <rect id="Rectangle_6540" data-name="Rectangle 6540" width="26" height="26" transform="translate(-164 -101)" fill="none"/>
  </g>
</svg>
